<svg xmlns="http://www.w3.org/2000/svg" width="75" height="77" fill="none" viewBox="0 0 75 77">
    <path fill="#3DC3EA" stroke="#3DC3EA" stroke-width="2" d="M22.488 32.85h0l-.003-.006c-.074-.132-.139-.252-.201-.37l3.327-3.327s0 0 0 0c3.252-3.252 3.252-8.525 0-11.777 0 0 0 0 0 0l-7.432-7.432c-3.272-3.272-8.583-3.25-11.827.05 0 0 0 0 0 0l-1.503 1.529-.04.04-.034.043c-1.04 1.325-1.933 2.88-2.57 4.513h0l-.002.003c-.586 1.514-.96 3.01-1.143 4.567h0v.006c-.106.94-1.498 16.952 18.219 36.674h0c14.153 14.147 24.832 19.62 36.664 18.19 1.509-.166 3.01-.549 4.56-1.136h0l.01-.004c1.642-.642 3.184-1.521 4.515-2.562l.045-.035.04-.04 1.529-1.504c3.296-3.245 3.317-8.554.046-11.824l-7.646-7.646h0c-3.252-3.253-8.525-3.253-11.778 0l-.374.374-.01.011-.012.011-2.884 3.07c-.06-.03-.12-.063-.186-.1h0l-.009-.006c-3.292-1.824-7.712-4.282-12.379-8.948-4.636-4.636-7.076-9.037-8.9-12.327l-.022-.038z"/>
    <path fill="#EEF3F9" d="M72.268 36.822c-.136 0-.273-.012-.411-.037-1.249-.225-2.078-1.42-1.852-2.669 1.463-8.09-1.129-16.386-6.932-22.189-5.803-5.803-14.098-8.396-22.19-6.932-1.247.226-2.443-.603-2.668-1.852-.226-1.248.603-2.443 1.851-2.669 9.573-1.73 19.388 1.336 26.256 8.204 6.867 6.868 9.934 16.683 8.204 26.255-.2 1.11-1.168 1.89-2.258 1.89z"/>
    <path fill="#EEF3F9" d="M58.257 36.823c-.27 0-.545-.048-.813-.15-1.186-.448-1.784-1.774-1.335-2.96 1.598-4.224.57-9.014-2.618-12.203-3.189-3.189-7.978-4.216-12.202-2.618-1.187.45-2.513-.148-2.962-1.335-.449-1.186.149-2.513 1.336-2.962 5.91-2.237 12.613-.798 17.077 3.667 4.464 4.464 5.903 11.167 3.666 17.077-.348.918-1.222 1.484-2.15 1.484z"/>
</svg>
