<svg xmlns="http://www.w3.org/2000/svg" width="77" height="77" fill="none" viewBox="0 0 77 77">
    <path fill="#3DC3EA" d="M76.11 29.207l.332-.425.557.425v45.137c-.004 1.465-1.19 2.651-2.655 2.655H2.655C1.191 76.995.005 75.81 0 74.344V29.207l.558-.425.332.425h75.22z"/>
    <path fill="#1895AA" d="M76.442 28.782l-.332.425-36.283 27.879h-2.655L.89 29.206l-.332-.424 12.719-9.89L30.773 5.31l6.12-4.752c.942-.744 2.271-.744 3.213 0l6.12 4.752 17.498 13.581 12.718 9.89z"/>
    <path fill="#EEF3F9" d="M63.724 7.966v30.76l-23.897 18.36h-2.655l-23.896-18.36V7.966c.004-1.465 1.19-2.651 2.655-2.656h45.138c1.464.005 2.65 1.191 2.655 2.656z"/>
    <path fill="#1895AA" d="M76.481 75.911c-.495.686-1.29 1.091-2.137 1.089H2.655c-.846.002-1.642-.403-2.137-1.089l30.415-23.617 5.96-4.633c.942-.744 2.271-.744 3.213 0l5.96 4.633L76.482 75.91z"/>
    <path fill="#5A5A60" d="M38.5 9.294c-8.799 0-15.931 7.132-15.931 15.93 0 8.8 7.132 15.932 15.93 15.932.734 0 1.328-.595 1.328-1.328 0-.733-.594-1.328-1.327-1.328-7.332 0-13.276-5.943-13.276-13.275 0-7.332 5.944-13.276 13.276-13.276 7.331 0 13.275 5.944 13.275 13.276v5.31c0 1.466-1.188 2.655-2.655 2.655-1.466 0-2.655-1.189-2.655-2.655v-5.31c0-.733-.594-1.328-1.328-1.328-.733 0-1.327.594-1.327 1.328 0 2.932-2.378 5.31-5.31 5.31-2.933 0-5.31-2.378-5.31-5.31 0-2.933 2.377-5.31 5.31-5.31.733 0 1.327-.595 1.327-1.328 0-.733-.594-1.328-1.327-1.328-3.565-.008-6.702 2.354-7.679 5.782-.977 3.43.443 7.09 3.477 8.962 3.034 1.872 6.942 1.501 9.569-.91.29 2.808 2.73 4.896 5.548 4.747 2.818-.15 5.024-2.483 5.016-5.305v-5.31C54.42 16.43 47.294 9.303 38.5 9.294z"/>
</svg>
